<?xml version="1.0" encoding="utf-8"?>
<!-- Generator: Adobe Illustrator 21.0.0, SVG Export Plug-In . SVG Version: 6.00 Build 0)  -->
<svg version="1.1" id="Layer_1" xmlns="http://www.w3.org/2000/svg" xmlns:xlink="http://www.w3.org/1999/xlink" x="0px" y="0px"
	 viewBox="0 0 1152 648" style="enable-background:new 0 0 1152 648;" xml:space="preserve">
<style type="text/css">
	.st0{fill:#2A306B;}
</style>
<g>
	<g>
		<path class="st0" d="M566.4,480.6c-0.6,0-1.3,0-1.9,0l0-3c3.7,0,7.5,0,11.1-0.3l0.2,3C572.7,480.5,569.5,480.6,566.4,480.6z
			 M562,480.6c-3.8-0.1-7.6-0.3-11.3-0.7l0.3-3c3.7,0.4,7.4,0.6,11.1,0.7L562,480.6z M578.4,480.2l-0.2-3c3.7-0.3,7.4-0.7,11.1-1.2
			l0.4,3C585.9,479.5,582.1,479.9,578.4,480.2z M548.1,479.6c-3.8-0.4-7.5-1-11.2-1.7l0.6-2.9c3.6,0.7,7.3,1.3,11,1.7L548.1,479.6z
			 M592.1,478.5l-0.5-3c3.7-0.6,7.3-1.4,10.9-2.2l0.7,2.9C599.6,477.1,595.9,477.9,592.1,478.5z M534.4,477.4
			c-3.7-0.8-7.4-1.7-11-2.7l0.8-2.9c3.6,1,7.2,1.9,10.8,2.7L534.4,477.4z M605.7,475.6l-0.8-2.9c3.6-0.9,7.2-2,10.7-3.2l1,2.8
			C613.1,473.6,609.4,474.7,605.7,475.6z M520.9,473.9c-3.6-1.1-7.2-2.3-10.8-3.7l1.1-2.8c3.5,1.3,7,2.6,10.6,3.6L520.9,473.9z
			 M619,471.6l-1-2.8c3.5-1.2,7-2.6,10.3-4.1l1.2,2.7C626.1,468.9,622.6,470.3,619,471.6z M507.8,469.3c-3.5-1.4-7-3-10.4-4.6
			l1.3-2.7c3.3,1.6,6.7,3.2,10.2,4.6L507.8,469.3z M631.8,466.3l-1.3-2.7c3.4-1.6,6.7-3.2,9.9-5l1.5,2.6
			C638.7,463,635.3,464.7,631.8,466.3z M495.2,463.5c-3.4-1.7-6.7-3.6-9.9-5.6l1.6-2.6c3.2,1.9,6.4,3.8,9.7,5.4L495.2,463.5z
			 M644.2,460l-1.5-2.6c3.2-1.8,6.4-3.8,9.5-5.9l1.7,2.5C650.7,456.1,647.4,458.1,644.2,460z M483.1,456.6c-3.2-2-6.3-4.2-9.4-6.4
			l1.8-2.4c3,2.2,6.1,4.3,9.2,6.3L483.1,456.6z M655.9,452.5l-1.7-2.5c3-2.1,6-4.4,8.9-6.7l1.9,2.3C662,448.1,659,450.4,655.9,452.5
			z M471.7,448.7c-3-2.3-6-4.7-8.8-7.2l2-2.2c2.8,2.5,5.7,4.8,8.6,7.1L471.7,448.7z M666.9,444.1l-1.9-2.3c2.8-2.4,5.6-4.9,8.3-7.5
			l2.1,2.2C672.6,439.1,669.8,441.6,666.9,444.1z M461,439.8c-2.8-2.5-5.5-5.2-8.1-8l2.2-2.1c2.6,2.7,5.2,5.3,8,7.8L461,439.8z
			 M677.1,434.7l-2.1-2.1c2.6-2.6,5.2-5.4,7.6-8.2l2.3,2C682.4,429.2,679.8,432,677.1,434.7z M451.2,430c-2.6-2.8-5-5.7-7.4-8.6
			l2.4-1.9c2.3,2.9,4.7,5.7,7.2,8.5L451.2,430z M686.5,424.4l-2.3-1.9c2.4-2.8,4.7-5.8,6.8-8.8l2.4,1.8
			C691.2,418.5,688.9,421.5,686.5,424.4z M442.3,419.4c-2.3-3-4.5-6.1-6.6-9.3l2.5-1.6c2,3.1,4.2,6.1,6.5,9.1L442.3,419.4z
			 M694.9,413.4l-2.5-1.7c2.1-3,4.1-6.2,6-9.4l2.6,1.5C699.1,407,697.1,410.3,694.9,413.4z M434.3,408c-2-3.2-4-6.5-5.7-9.8l2.6-1.4
			c1.7,3.3,3.6,6.5,5.6,9.6L434.3,408z M702.3,401.6l-2.6-1.5c1.8-3.2,3.6-6.5,5.2-9.9l2.7,1.3C706,394.9,704.2,398.3,702.3,401.6z
			 M427.4,396c-1.7-3.4-3.4-6.8-4.8-10.3l2.8-1.2c1.5,3.4,3,6.8,4.7,10.1L427.4,396z M708.7,389.2l-2.7-1.2c1.5-3.4,3-6.8,4.3-10.3
			l2.8,1C711.7,382.3,710.2,385.8,708.7,389.2z M421.6,383.4c-1.4-3.5-2.7-7.1-3.9-10.7l2.9-0.9c1.1,3.5,2.4,7,3.8,10.5L421.6,383.4
			z M713.9,376.3l-2.8-1c1.2-3.5,2.3-7.1,3.3-10.6l2.9,0.8C716.3,369.1,715.1,372.8,713.9,376.3z M416.9,370.3
			c-1.1-3.6-2.1-7.3-2.9-11l2.9-0.7c0.8,3.6,1.8,7.2,2.9,10.8L416.9,370.3z M717.9,363l-2.9-0.7c0.9-3.6,1.7-7.2,2.4-10.9l3,0.5
			C719.6,355.7,718.8,359.4,717.9,363z M413.5,356.9c-0.8-3.7-1.4-7.5-1.9-11.2l3-0.4c0.5,3.7,1.1,7.4,1.9,11L413.5,356.9z
			 M720.7,349.4l-3-0.5c0.6-3.7,1.1-7.4,1.4-11.1l3,0.3C721.8,341.9,721.3,345.7,720.7,349.4z M411.2,343.2
			c-0.4-3.7-0.8-7.5-0.9-11.3l3-0.1c0.2,3.7,0.5,7.4,0.9,11.1L411.2,343.2z M722.3,335.7l-3-0.2c0.3-3.7,0.4-7.4,0.4-11.1
			c0-3.3-0.1-6.6-0.3-9.8l3-0.2c0.2,3.3,0.3,6.7,0.3,10C722.7,328.1,722.6,331.9,722.3,335.7z M410.1,329.3c-0.1-1.6-0.1-3.3-0.1-5
			c0-2.1,0-4.3,0.1-6.4l3,0.1c-0.1,2.1-0.1,4.2-0.1,6.2c0,1.6,0,3.3,0.1,4.9L410.1,329.3z M413.3,315.6l-3-0.2
			c0.2-3.8,0.6-7.6,1-11.3l3,0.4C413.9,308.2,413.5,311.9,413.3,315.6z M719.2,312c-0.3-3.7-0.7-7.4-1.3-11.1l3-0.5
			c0.6,3.7,1,7.5,1.3,11.3L719.2,312z M414.7,302l-3-0.4c0.5-3.7,1.2-7.5,2-11.2l2.9,0.6C415.9,294.7,415.2,298.4,414.7,302z
			 M717.6,298.5c-0.6-3.6-1.4-7.3-2.3-10.9l2.9-0.7c0.9,3.7,1.7,7.4,2.3,11.1L717.6,298.5z M417.2,288.7l-2.9-0.7
			c0.9-3.7,1.9-7.4,3-10.9l2.9,0.9C419.1,281.5,418.1,285.1,417.2,288.7z M714.7,285.2c-0.9-3.6-2-7.2-3.2-10.7l2.8-1
			c1.2,3.6,2.3,7.2,3.3,10.9L714.7,285.2z M421,275.6l-2.8-1c1.2-3.6,2.5-7.2,4-10.6l2.8,1.2C423.5,268.5,422.1,272.1,421,275.6z
			 M710.6,272.2c-1.3-3.5-2.7-6.9-4.2-10.3l2.7-1.2c1.5,3.4,3,7,4.2,10.5L710.6,272.2z M425.9,262.8l-2.7-1.2
			c1.5-3.5,3.2-6.9,4.9-10.2l2.7,1.4C429,256.1,427.4,259.5,425.9,262.8z M705.5,259.6c-1.6-3.3-3.3-6.7-5.1-9.9l2.6-1.5
			c1.8,3.3,3.6,6.7,5.2,10.1L705.5,259.6z M431.9,250.6l-2.6-1.4c1.8-3.3,3.8-6.6,5.8-9.8l2.5,1.6
			C435.6,244.1,433.7,247.4,431.9,250.6z M699.2,247.6c-1.8-3.2-3.8-6.4-5.9-9.4l2.5-1.7c2.1,3.1,4.2,6.4,6,9.6L699.2,247.6z
			 M439,239l-2.5-1.7c2.1-3.1,4.3-6.2,6.7-9.2l2.4,1.8C443.3,232.9,441,235.9,439,239z M691.8,236.1c-2.1-3-4.4-6-6.7-8.9l2.3-1.9
			c2.4,2.9,4.7,6,6.9,9L691.8,236.1z M447.1,228l-2.3-1.9c2.4-2.9,4.9-5.8,7.5-8.6l2.2,2C451.9,222.3,449.4,225.1,447.1,228z
			 M683.5,225.3c-2.4-2.8-4.9-5.6-7.5-8.2l2.1-2.1c2.6,2.7,5.2,5.5,7.6,8.4L683.5,225.3z M456.1,217.8l-2.2-2.1
			c2.6-2.7,5.4-5.4,8.2-7.9l2,2.2C461.4,212.5,458.7,215.1,456.1,217.8z M674.3,215.3c-2.6-2.6-5.4-5.1-8.2-7.6l2-2.3
			c2.9,2.5,5.7,5,8.4,7.7L674.3,215.3z M466,208.4l-2-2.3c2.9-2.5,5.8-4.9,8.8-7.1l1.8,2.4C471.7,203.6,468.8,206,466,208.4z
			 M664.2,206.2c-2.8-2.4-5.8-4.6-8.8-6.8l1.7-2.4c3.1,2.2,6.1,4.5,9,6.9L664.2,206.2z M476.7,200l-1.8-2.4c3.1-2.2,6.2-4.3,9.4-6.3
			l1.6,2.6C482.8,195.7,479.7,197.8,476.7,200z M653.3,198c-3-2.1-6.2-4.1-9.4-6l1.5-2.6c3.3,1.9,6.5,4,9.6,6.1L653.3,198z
			 M488,192.5l-1.5-2.6c3.2-1.9,6.6-3.8,10-5.5l1.3,2.7C494.5,188.8,491.2,190.6,488,192.5z M641.7,190.7c-3.2-1.8-6.6-3.6-9.9-5.1
			l1.3-2.7c3.4,1.6,6.8,3.4,10.1,5.2L641.7,190.7z M500,186l-1.3-2.7c3.4-1.6,6.9-3.2,10.4-4.5l1.1,2.8
			C506.8,182.9,503.3,184.4,500,186z M629.6,184.6c-3.4-1.5-6.8-3-10.3-4.2l1-2.8c3.5,1.3,7.1,2.8,10.5,4.3L629.6,184.6z
			 M512.5,180.7l-1.1-2.8c3.5-1.3,7.2-2.5,10.8-3.6l0.8,2.9C519.5,178.2,516,179.4,512.5,180.7z M616.9,179.5
			c-3.5-1.2-7.1-2.3-10.6-3.3l0.8-2.9c3.6,1,7.3,2.1,10.9,3.3L616.9,179.5z M525.5,176.5l-0.8-2.9c3.6-1,7.4-1.9,11.1-2.6l0.6,2.9
			C532.7,174.6,529,175.5,525.5,176.5z M603.9,175.6c-3.6-0.9-7.3-1.7-10.9-2.3l0.5-3c3.7,0.6,7.5,1.4,11.1,2.4L603.9,175.6z
			 M538.8,173.5l-0.5-3c3.7-0.7,7.5-1.2,11.2-1.6l0.3,3C546.1,172.3,542.4,172.8,538.8,173.5z M590.5,172.9c-3.6-0.6-7.4-1-11.1-1.3
			l0.3-3c3.8,0.3,7.6,0.8,11.3,1.4L590.5,172.9z M552.3,171.6l-0.3-3c3.8-0.3,7.6-0.6,11.3-0.6l0.1,3
			C559.7,171.1,555.9,171.3,552.3,171.6z M577,171.3c-3.5-0.2-7.1-0.4-10.6-0.4l-0.5,0l0-3l0.5,0c3.6,0,7.2,0.1,10.8,0.4L577,171.3z
			"/>
	</g>
	<g>
		<path class="st0" d="M566.4,446c-67.1,0-121.7-54.6-121.7-121.7c0-67.1,54.6-121.7,121.7-121.7c67.1,0,121.7,54.6,121.7,121.7
			C688.1,391.4,633.5,446,566.4,446z M566.4,203.6c-66.5,0-120.7,54.1-120.7,120.7c0,66.5,54.1,120.7,120.7,120.7
			c66.5,0,120.7-54.1,120.7-120.7C687.1,257.8,632.9,203.6,566.4,203.6z"/>
	</g>
	<g>
		<g>
			<path class="st0" d="M566.4,419.1c-52.3,0-94.8-42.5-94.8-94.8c0-52.3,42.5-94.8,94.8-94.8c52.3,0,94.8,42.5,94.8,94.8
				C661.2,376.6,618.7,419.1,566.4,419.1z M566.4,233.3c-50.2,0-91,40.8-91,91c0,50.2,40.8,91,91,91c50.2,0,91-40.8,91-91
				C657.4,274.1,616.6,233.3,566.4,233.3z"/>
		</g>
		<g>
			<g>
				<path class="st0" d="M460.8,324.3h-27.4c0-73.4,59.7-133.1,133.1-133.1v27.4C508.2,218.7,460.8,266.1,460.8,324.3z"/>
			</g>
		</g>
		<g>
			<g>
				<path class="st0" d="M566.4,457.4v-27.4c58.2,0,105.6-47.4,105.6-105.6h27.4C699.5,397.7,639.8,457.4,566.4,457.4z"/>
			</g>
		</g>
	</g>
	<g>
		<g>
			<path class="st0" d="M566.4,417.7c-51.5,0-93.4-41.9-93.4-93.4c0-51.5,41.9-93.4,93.4-93.4c51.5,0,93.4,41.9,93.4,93.4
				C659.8,375.8,617.9,417.7,566.4,417.7z M566.4,231.9c-51,0-92.4,41.5-92.4,92.4c0,51,41.5,92.4,92.4,92.4
				c51,0,92.4-41.5,92.4-92.4C658.8,273.3,617.4,231.9,566.4,231.9z"/>
		</g>
		<g>
			<g>
				<path class="st0" d="M460.8,324.3h-27.4c0-73.4,59.7-133.1,133.1-133.1v27.4C508.2,218.7,460.8,266.1,460.8,324.3z"/>
			</g>
		</g>
		<g>
			<g>
				<path class="st0" d="M566.4,457.4v-27.4c58.2,0,105.6-47.4,105.6-105.6h27.4C699.5,397.7,639.8,457.4,566.4,457.4z"/>
			</g>
		</g>
	</g>
	<g>
		<g>
			<g>
				<path class="st0" d="M417.9,428.7l-0.4-0.5c-27.7-39.7-38.3-87.9-29.8-135.7c8.5-47.8,35-89.4,74.8-117.1l0.5-0.4l22.1,31.6
					l-0.5,0.4c-64.7,45.1-80.5,134.4-35.4,199.1l0.4,0.5L417.9,428.7z M462.7,176.8c-39.1,27.5-65.3,68.7-73.7,115.9
					c-8.4,47.3,2,94.9,29.2,134.3l29.6-20.6c-45-65-29.1-154.5,35.6-200L462.7,176.8z"/>
			</g>
		</g>
		<g>
			<g>
				<path class="st0" d="M669.8,473.5l-22.1-31.6l0.5-0.4c31.3-21.8,52.2-54.6,58.9-92.2c6.7-37.6-1.6-75.6-23.5-106.9l-0.4-0.5
					l31.6-22.1l0.4,0.5c57.3,82.1,37.1,195.5-45,252.8L669.8,473.5z M649.5,442.2l20.6,29.6C751,414.9,771,302.9,714.6,221.6
					L685,242.3c21.8,31.4,30,69.5,23.3,107.3C701.6,387.3,680.7,420.2,649.5,442.2z"/>
			</g>
		</g>
	</g>
	<g>
		<g>
			<path class="st0" d="M566.4,375.4c-28.2,0-51.1-22.9-51.1-51.1c0-28.2,22.9-51.1,51.1-51.1c28.2,0,51.1,22.9,51.1,51.1
				C617.5,352.5,594.6,375.4,566.4,375.4z M566.4,274.2c-27.6,0-50.1,22.5-50.1,50.1c0,27.6,22.5,50.1,50.1,50.1
				c27.6,0,50.1-22.5,50.1-50.1C616.5,296.7,594,274.2,566.4,274.2z"/>
		</g>
		<g>
			<g>
				<path class="st0" d="M566.4,266.8v-15c40,0,72.5,32.5,72.5,72.5h-15C623.9,292.6,598.1,266.8,566.4,266.8z"/>
			</g>
		</g>
		<g>
			<g>
				<path class="st0" d="M493.9,324.3h15c0,31.7,25.8,57.5,57.5,57.5v15C526.4,396.8,493.9,364.3,493.9,324.3z"/>
			</g>
		</g>
	</g>
</g>
</svg>
